<svg width="86" height="90" viewBox="0 0 86 90" fill="none" xmlns="http://www.w3.org/2000/svg">
<path d="M84.758 59.2172L79.936 53.1952C80.504 52.8422 80.885 52.2182 80.885 51.5002V45.3332C80.885 44.2292 79.989 43.3332 78.885 43.3332H76.718V35.6672C77.453 34.5562 77.884 33.2272 77.884 31.7982C77.884 28.6882 75.82 25.9532 72.89 25.0652L63.321 15.4962C64.624 11.2082 60.708 3.04116 52.455 4.40716L49.3 1.25216C48.54 0.493158 47.318 0.469158 46.529 1.19616C38.656 8.46316 26.087 19.9962 23.576 22.1342C19.494 22.4942 15.226 25.8162 15.226 30.1782V31.2312H9.40798C8.35098 31.2312 7.47598 32.0532 7.41198 33.1082L5.82598 58.9282H2.80298C1.69898 58.9282 0.802979 59.8242 0.802979 60.9282V87.3312C0.802979 88.4352 1.69898 89.3312 2.80298 89.3312H47.082C48.186 89.3312 49.082 88.4352 49.082 87.3312V60.9312C49.082 59.8272 48.186 58.9312 47.082 58.9312H32.914L27.278 44.5422C30.264 43.5052 32.93 41.0112 33.329 37.8232L47.292 22.3722C49.317 23.9162 51.864 24.6702 54.52 24.3462L64.185 34.0112C64.69 35.5452 65.696 36.8042 66.982 37.6562V43.3342H64.815C63.711 43.3342 62.815 44.2302 62.815 45.3342V51.5002C62.815 52.2182 63.196 52.8422 63.764 53.1952L58.942 59.2172C58.658 59.5712 58.503 60.0122 58.503 60.4672V67.2502C58.503 68.3542 59.399 69.2502 60.503 69.2502H66.5C67.604 69.2502 68.5 68.3542 68.5 67.2502V64.6662L71.235 60.8942L72.308 60.8842L75.2 64.7792V67.2502C75.2 68.3542 76.096 69.2502 77.2 69.2502H83.198C84.302 69.2502 85.198 68.3542 85.198 67.2502V60.4672C85.197 60.0122 85.042 59.5712 84.758 59.2172ZM66.814 47.3332H76.885V49.5002H66.814V47.3332ZM70.85 28.8062C72.5 28.8062 73.843 30.1492 73.843 31.7992C73.843 33.4492 72.5 34.7922 70.85 34.7922C69.2 34.7922 67.857 33.4502 67.857 31.7992C67.857 30.1482 69.2 28.8062 70.85 28.8062ZM70.981 38.8272C71.582 38.8162 72.164 38.7272 72.719 38.5742V45.3342H70.981V38.8272ZM53.361 20.3542C50.073 20.3542 47.399 17.6792 47.399 14.3922C47.399 11.1052 50.073 8.43016 53.361 8.43016C56.649 8.43016 59.323 11.1042 59.323 14.3922C59.323 17.6802 56.648 20.3542 53.361 20.3542ZM29.378 36.4342C29.378 38.6282 26.587 40.5092 24.303 40.5092C22.019 40.5092 19.228 38.6292 19.228 36.4342V30.7422C19.228 28.5482 22.019 26.6672 24.303 26.6672C26.587 26.6672 29.378 28.5472 29.378 30.7422V36.4342ZM45.082 85.3332H4.80298V62.9312H45.082V85.3332V85.3332ZM28.619 58.9312H9.83398L11.29 35.2332H17.227C17.228 35.2332 17.228 35.2332 17.229 35.2332V36.4342C17.229 39.3072 19.911 41.6322 22.708 42.3052C22.515 42.7762 28.619 58.9312 28.619 58.9312ZM31.378 34.0152V30.7422C31.378 28.0182 28.965 25.7852 26.33 24.9872C28.598 23.1512 33.9 18.2962 47.83 5.44016L49.712 7.32316C47.153 8.64916 45.397 11.3172 45.397 14.3922C45.397 15.6122 45.681 16.7642 46.173 17.7982C45.999 17.8992 45.834 18.0172 45.696 18.1702L31.378 34.0152ZM57.196 21.3662C58.528 20.6302 59.63 19.5262 60.358 18.1892L69.259 27.0902C67.765 27.5972 66.599 28.7822 66.117 30.2872L57.196 21.3662ZM81.197 65.2502H79.2V64.1182C79.2 63.6892 79.062 63.2712 78.806 62.9262L74.913 57.6822C74.532 57.1682 73.948 56.9062 73.288 56.8742L70.189 56.9042C69.555 56.9102 68.961 57.2172 68.589 57.7302L64.881 62.8432C64.633 63.1842 64.5 63.5952 64.5 64.0172V65.2502H62.502V61.1692L68.587 53.5702H75.111L81.196 61.1692V65.2502H81.197ZM25.781 31.5292C25.692 31.3742 25.527 31.2792 25.348 31.2792H23.26C23.081 31.2792 22.916 31.3742 22.827 31.5292L21.783 33.3382C21.694 33.4932 21.694 33.6832 21.783 33.8382L22.827 35.6462C22.916 35.8012 23.081 35.8962 23.26 35.8962H25.348C25.527 35.8962 25.692 35.8012 25.781 35.6462L26.825 33.8382C26.914 33.6832 26.914 33.4932 26.825 33.3382L25.781 31.5292ZM54.838 12.3332C54.749 12.1782 54.584 12.0832 54.405 12.0832H52.317C52.138 12.0832 51.973 12.1782 51.884 12.3332L50.84 14.1412C50.751 14.2962 50.751 14.4862 50.84 14.6412L51.884 16.4502C51.973 16.6052 52.138 16.7002 52.317 16.7002H54.405C54.584 16.7002 54.749 16.6052 54.838 16.4502L55.882 14.6412C55.971 14.4862 55.971 14.2962 55.882 14.1412L54.838 12.3332Z" fill="white"/>
</svg>
