<svg width="236" height="27" viewBox="0 0 236 27" fill="none" xmlns="http://www.w3.org/2000/svg">
<path d="M9.375 10.5C9.78921 10.5 10.125 10.1642 10.125 9.75C10.125 9.33579 9.78921 9 9.375 9C8.96079 9 8.625 9.33579 8.625 9.75C8.625 10.1642 8.96079 10.5 9.375 10.5Z" fill="white"/>
<path d="M21.2621 19.6068C21.3326 19.4601 21.375 19.2981 21.375 19.1249C21.375 18.5046 20.8703 17.9999 20.25 17.9999C19.7617 17.9999 19.3492 18.3145 19.194 18.7499H17.1806C17.0674 18.4323 16.8173 18.1821 16.4996 18.0689V17.0301L19.0148 14.515C19.0856 14.4449 19.125 14.3496 19.125 14.2499V12.6809C19.5604 12.5256 19.875 12.1131 19.875 11.6249C19.875 11.0046 19.3703 10.4999 18.75 10.4999C18.2617 10.4999 17.8492 10.8145 17.694 11.2499H16.125C15.918 11.2499 15.75 11.4175 15.75 11.6249V12.8189C15.3146 12.9741 15 13.3866 15 13.8749C15 14.3631 15.3146 14.7756 15.75 14.9309V16.4999H15.306C15.1928 16.1823 14.9426 15.9321 14.625 15.8189V10.8059C14.8028 10.7425 14.9584 10.6375 15.0825 10.4999H16.5C16.5994 10.4999 16.695 10.4605 16.7651 10.39L17.1401 10.015C17.2106 9.94488 17.25 9.84963 17.25 9.74988V9.37488H19.194C19.3492 9.81026 19.7617 10.1249 20.25 10.1249C20.8703 10.1249 21.375 9.62013 21.375 8.99988C21.375 8.37963 20.8703 7.87488 20.25 7.87488C19.7617 7.87488 19.3492 8.18951 19.194 8.62488H18.375V6.30588C18.8104 6.15063 19.125 5.73813 19.125 5.24988C19.125 4.62963 18.6203 4.12488 18 4.12488C17.8267 4.12488 17.6648 4.16726 17.5181 4.23776L14.8901 1.60976C14.82 1.53926 14.7244 1.49988 14.625 1.49988H12H6.75C6.44213 1.49988 6.16088 1.30451 6.05063 1.01388C5.98875 0.851509 5.82412 0.754009 5.6505 0.775384C4.96312 0.867634 4.32713 1.23851 3.90675 1.79313C3.48188 2.35263 3.30225 3.04901 3.40125 3.75401C3.54 4.73238 4.24125 5.53526 5.1795 5.85101C4.98113 6.51363 4.875 7.19163 4.875 7.87488H4.5C3.46613 7.87488 2.625 8.71601 2.625 9.74988C2.625 10.7838 3.46613 11.6249 4.5 11.6249H4.91513C5.16638 14.0144 6.603 16.0551 8.625 17.1475V18.7499H3.375C1.9275 18.7499 0.75 19.9278 0.75 21.3749V23.2499H1.5V21.3749C1.5 20.341 2.34113 19.4999 3.375 19.4999H8.89237L11.625 21.2076V23.2499H12H12.375H13.875C13.9744 23.2499 14.07 23.2105 14.1401 23.14L15.375 21.9051L15.8599 22.39C15.93 22.4605 16.0256 22.4999 16.125 22.4999H17.319C17.4742 22.9353 17.8867 23.2499 18.375 23.2499C18.9953 23.2499 19.5 22.7451 19.5 22.1249C19.5 21.6366 19.1854 21.2241 18.75 21.0689V19.4999H19.194C19.3492 19.9353 19.7617 20.2499 20.25 20.2499C20.4233 20.2499 20.5852 20.2075 20.7319 20.137L21.2197 20.6249L20.7349 21.1098C20.6644 21.1799 20.625 21.2751 20.625 21.3749V23.2499H21.375V21.5301L21.75 21.1551L22.5 21.9051V23.2499H23.25V21.7499C23.25 21.6501 23.2106 21.5549 23.1401 21.4848L21.2621 19.6068ZM15.069 18.7499H12.375V17.6249V17.2499H13.194C13.3492 17.6853 13.7617 17.9999 14.25 17.9999C14.7383 17.9999 15.1508 17.6853 15.306 17.2499H15.75V18.0689C15.4324 18.1821 15.1822 18.4323 15.069 18.7499ZM13.194 4.87488C13.3072 5.19251 13.5574 5.44263 13.875 5.55588V7.12488H12.375V5.62488V4.87488H13.194ZM13.875 4.49988C13.875 4.29288 14.0434 4.12488 14.25 4.12488C14.4566 4.12488 14.625 4.29288 14.625 4.49988C14.625 4.70688 14.4566 4.87488 14.25 4.87488C14.0434 4.87488 13.875 4.70688 13.875 4.49988ZM13.194 10.1249C13.3072 10.4425 13.5574 10.6926 13.875 10.8059V12.3749H12.375V10.1249H13.194ZM14.625 16.8749C14.625 17.0819 14.4566 17.2499 14.25 17.2499C14.0434 17.2499 13.875 17.0819 13.875 16.8749C13.875 16.6679 14.0434 16.4999 14.25 16.4999C14.4566 16.4999 14.625 16.6679 14.625 16.8749ZM13.194 16.4999H12.375V13.1249H13.875V15.8189C13.5574 15.9321 13.3072 16.1823 13.194 16.4999ZM16.5 19.1249C16.5 19.3319 16.3316 19.4999 16.125 19.4999C15.9184 19.4999 15.75 19.3319 15.75 19.1249C15.75 18.9179 15.9184 18.7499 16.125 18.7499C16.3316 18.7499 16.5 18.9179 16.5 19.1249ZM18.75 11.2499C18.9566 11.2499 19.125 11.4179 19.125 11.6249C19.125 11.8319 18.9566 11.9999 18.75 11.9999C18.5434 11.9999 18.375 11.8319 18.375 11.6249C18.375 11.4179 18.5434 11.2499 18.75 11.2499ZM17.694 11.9999C17.8072 12.3175 18.0574 12.5676 18.375 12.6809V14.0946L16.5 15.9696V14.9309C16.9354 14.7756 17.25 14.3631 17.25 13.8749C17.25 13.3866 16.9354 12.9741 16.5 12.8189V11.9999H17.694ZM16.125 13.4999C16.3316 13.4999 16.5 13.6679 16.5 13.8749C16.5 14.0819 16.3316 14.2499 16.125 14.2499C15.9184 14.2499 15.75 14.0819 15.75 13.8749C15.75 13.6679 15.9184 13.4999 16.125 13.4999ZM14.25 10.1249C14.0434 10.1249 13.875 9.95688 13.875 9.74988C13.875 9.54288 14.0434 9.37488 14.25 9.37488C14.4566 9.37488 14.625 9.54288 14.625 9.74988C14.625 9.95688 14.4566 10.1249 14.25 10.1249ZM16.3447 9.74988H15.375C15.375 9.12963 14.8703 8.62488 14.25 8.62488C13.7617 8.62488 13.3492 8.93951 13.194 9.37488H12.375V7.87488H15.2197L16.5 9.15513V9.59463L16.3447 9.74988ZM20.25 8.62488C20.4566 8.62488 20.625 8.79288 20.625 8.99988C20.625 9.20688 20.4566 9.37488 20.25 9.37488C20.0434 9.37488 19.875 9.20688 19.875 8.99988C19.875 8.79288 20.0434 8.62488 20.25 8.62488ZM18.375 5.24988C18.375 5.45688 18.2066 5.62488 18 5.62488C17.7934 5.62488 17.625 5.45688 17.625 5.24988C17.625 5.04288 17.7934 4.87488 18 4.87488C18.2066 4.87488 18.375 5.04288 18.375 5.24988ZM16.9879 4.76801C16.9174 4.91463 16.875 5.07663 16.875 5.24988C16.875 5.73813 17.1896 6.15063 17.625 6.30588V8.62488H17.0303L15.6401 7.23476C15.57 7.16426 15.4744 7.12488 15.375 7.12488H14.625V5.55588C15.0604 5.40063 15.375 4.98813 15.375 4.49988C15.375 3.87963 14.8703 3.37488 14.25 3.37488C13.7617 3.37488 13.3492 3.68951 13.194 4.12488H12.375V2.24988H14.4697L16.9879 4.76801ZM4.14375 3.64901C4.07288 3.14388 4.20075 2.64551 4.50375 2.24651C4.7565 1.91313 5.103 1.67876 5.4975 1.57001C5.77162 1.98626 6.24225 2.24988 6.75 2.24988H11.625V5.24988H6.07875C5.97825 5.24988 5.8755 5.24163 5.7795 5.22663C5.769 5.22438 5.75887 5.22326 5.75212 5.22251C5.742 5.22101 5.73075 5.21913 5.72212 5.21801C4.89 5.06801 4.2555 4.43688 4.14375 3.64901ZM4.5 10.8749C3.87975 10.8749 3.375 10.3701 3.375 9.74988C3.375 9.12963 3.87975 8.62488 4.5 8.62488H4.875V10.8749H4.5ZM5.625 10.8749V8.24988V7.87488C5.625 7.24113 5.72213 6.60963 5.91375 5.99463C5.96888 5.99801 6.024 5.99988 6.07875 5.99988H11.625V17.239C8.28375 17.044 5.625 14.2641 5.625 10.8749ZM11.625 17.9808V20.3234L9.375 18.9168V17.4925C10.0774 17.7723 10.8341 17.9395 11.625 17.9808ZM13.7197 22.4999H12.375V20.9999H14.4697L14.8447 21.3749L13.7197 22.4999ZM18.375 22.4999C18.1684 22.4999 18 22.3319 18 22.1249C18 21.9179 18.1684 21.7499 18.375 21.7499C18.5816 21.7499 18.75 21.9179 18.75 22.1249C18.75 22.3319 18.5816 22.4999 18.375 22.4999ZM18 21.0689C17.6824 21.1821 17.4322 21.4323 17.319 21.7499H16.2803L14.8901 20.3598C14.82 20.2893 14.7244 20.2499 14.625 20.2499H12.375V19.4999H15.069C15.2242 19.9353 15.6367 20.2499 16.125 20.2499C16.6133 20.2499 17.0258 19.9353 17.181 19.4999H18V21.0689ZM19.875 19.1249C19.875 18.9179 20.0434 18.7499 20.25 18.7499C20.4566 18.7499 20.625 18.9179 20.625 19.1249C20.625 19.3319 20.4566 19.4999 20.25 19.4999C20.0434 19.4999 19.875 19.3319 19.875 19.1249Z" fill="white"/>
<path d="M39.0645 6.60547H43.3906V21H40.5879V11.2637C40.5879 10.9837 40.5911 10.5931 40.5977 10.0918C40.6042 9.58398 40.6074 9.19336 40.6074 8.91992L37.8828 21H34.9629L32.2578 8.91992C32.2578 9.19336 32.2611 9.58398 32.2676 10.0918C32.2741 10.5931 32.2773 10.9837 32.2773 11.2637V21H29.4746V6.60547H33.8496L36.4668 17.9238L39.0645 6.60547ZM48.7324 10.3555V16.7715C48.7324 17.377 48.804 17.8327 48.9473 18.1387C49.2012 18.679 49.6992 18.9492 50.4414 18.9492C51.3919 18.9492 52.043 18.5651 52.3945 17.7969C52.5768 17.3802 52.668 16.8301 52.668 16.1465V10.3555H55.4902V21H52.7852V19.4961C52.7591 19.5286 52.694 19.6263 52.5898 19.7891C52.4857 19.9518 52.362 20.0951 52.2188 20.2188C51.7826 20.6094 51.3594 20.8763 50.9492 21.0195C50.5456 21.1628 50.0703 21.2344 49.5234 21.2344C47.9479 21.2344 46.8867 20.668 46.3398 19.5352C46.0339 18.9102 45.8809 17.9889 45.8809 16.7715V10.3555H48.7324ZM60.3535 17.6016C60.4121 18.0964 60.5391 18.4479 60.7344 18.6562C61.0794 19.0273 61.7174 19.2129 62.6484 19.2129C63.1953 19.2129 63.6283 19.1315 63.9473 18.9688C64.2728 18.806 64.4355 18.5618 64.4355 18.2363C64.4355 17.9238 64.3053 17.6862 64.0449 17.5234C63.7845 17.3607 62.8177 17.0807 61.1445 16.6836C59.9401 16.3841 59.0905 16.0098 58.5957 15.5605C58.1009 15.1178 57.8535 14.4798 57.8535 13.6465C57.8535 12.6634 58.2376 11.8203 59.0059 11.1172C59.7806 10.4076 60.8678 10.0527 62.2676 10.0527C63.5957 10.0527 64.6764 10.3197 65.5098 10.8535C66.3496 11.3809 66.8314 12.2956 66.9551 13.5977H64.1719C64.1328 13.2396 64.0319 12.9564 63.8691 12.748C63.5632 12.3704 63.0423 12.1816 62.3066 12.1816C61.7012 12.1816 61.2682 12.276 61.0078 12.4648C60.7539 12.6536 60.627 12.875 60.627 13.1289C60.627 13.4479 60.7637 13.679 61.0371 13.8223C61.3105 13.972 62.2773 14.2292 63.9375 14.5938C65.0443 14.8542 65.8743 15.248 66.4277 15.7754C66.9746 16.3092 67.248 16.9766 67.248 17.7773C67.248 18.832 66.8542 19.6947 66.0664 20.3652C65.2852 21.0293 64.0742 21.3613 62.4336 21.3613C60.7604 21.3613 59.5234 21.0098 58.7227 20.3066C57.9284 19.597 57.5312 18.6953 57.5312 17.6016H60.3535ZM68.2246 12.4355V10.4531H69.709V7.48438H72.4629V10.4531H74.1914V12.4355H72.4629V18.0605C72.4629 18.4967 72.5182 18.7702 72.6289 18.8809C72.7396 18.985 73.0781 19.0371 73.6445 19.0371C73.7292 19.0371 73.8171 19.0371 73.9082 19.0371C74.0059 19.0306 74.1003 19.0241 74.1914 19.0176V21.0977L72.873 21.1465C71.5579 21.1921 70.6595 20.9642 70.1777 20.4629C69.8652 20.1439 69.709 19.6523 69.709 18.9883V12.4355H68.2246ZM81.8477 15.8242C81.6719 15.9349 81.4928 16.026 81.3105 16.0977C81.1348 16.1628 80.8906 16.2246 80.5781 16.2832L79.9531 16.4004C79.3672 16.5046 78.9473 16.6315 78.6934 16.7812C78.2637 17.0352 78.0488 17.429 78.0488 17.9629C78.0488 18.4382 78.179 18.7832 78.4395 18.998C78.7064 19.2064 79.0286 19.3105 79.4062 19.3105C80.0052 19.3105 80.5553 19.1348 81.0566 18.7832C81.5645 18.4316 81.8281 17.7904 81.8477 16.8594V15.8242ZM80.1582 14.5254C80.6725 14.4603 81.0404 14.3789 81.2617 14.2812C81.6589 14.112 81.8574 13.8483 81.8574 13.4902C81.8574 13.054 81.7044 12.7546 81.3984 12.5918C81.099 12.4225 80.6562 12.3379 80.0703 12.3379C79.4128 12.3379 78.9473 12.5007 78.6738 12.8262C78.4785 13.0671 78.3483 13.3926 78.2832 13.8027H75.5977C75.6562 12.8717 75.9167 12.1068 76.3789 11.5078C77.1146 10.5703 78.3776 10.1016 80.168 10.1016C81.3333 10.1016 82.3685 10.3327 83.2734 10.7949C84.1784 11.2572 84.6309 12.1296 84.6309 13.4121V18.2949C84.6309 18.6335 84.6374 19.0436 84.6504 19.5254C84.6699 19.89 84.7253 20.1374 84.8164 20.2676C84.9076 20.3978 85.0443 20.5052 85.2266 20.5898V21H82.1992C82.1146 20.7852 82.056 20.5833 82.0234 20.3945C81.9909 20.2057 81.9648 19.9909 81.9453 19.75C81.5612 20.1667 81.1185 20.5215 80.6172 20.8145C80.0182 21.1595 79.3411 21.332 78.5859 21.332C77.6224 21.332 76.8249 21.0586 76.1934 20.5117C75.5684 19.9583 75.2559 19.1771 75.2559 18.168C75.2559 16.8594 75.7604 15.9121 76.7695 15.3262C77.3229 15.0072 78.1367 14.7793 79.2109 14.6426L80.1582 14.5254ZM91.0371 6.45898C91.2129 6.45898 91.3724 6.46549 91.5156 6.47852C91.6589 6.48503 91.8542 6.49805 92.1016 6.51758V8.7832C91.9453 8.76367 91.6816 8.75065 91.3105 8.74414C90.946 8.73112 90.6921 8.8125 90.5488 8.98828C90.4121 9.15755 90.3438 9.34635 90.3438 9.55469C90.3438 9.76302 90.3438 10.0625 90.3438 10.4531H92.1699V12.416H90.3438V21H87.5703V12.416H86.0176V10.4531H87.541V9.76953C87.541 8.63021 87.7331 7.8457 88.1172 7.41602C88.5208 6.77799 89.4941 6.45898 91.0371 6.45898ZM99.6406 15.8242C99.4648 15.9349 99.2858 16.026 99.1035 16.0977C98.9277 16.1628 98.6836 16.2246 98.3711 16.2832L97.7461 16.4004C97.1602 16.5046 96.7402 16.6315 96.4863 16.7812C96.0566 17.0352 95.8418 17.429 95.8418 17.9629C95.8418 18.4382 95.972 18.7832 96.2324 18.998C96.4993 19.2064 96.8216 19.3105 97.1992 19.3105C97.7982 19.3105 98.3483 19.1348 98.8496 18.7832C99.3574 18.4316 99.6211 17.7904 99.6406 16.8594V15.8242ZM97.9512 14.5254C98.4655 14.4603 98.8333 14.3789 99.0547 14.2812C99.4518 14.112 99.6504 13.8483 99.6504 13.4902C99.6504 13.054 99.4974 12.7546 99.1914 12.5918C98.8919 12.4225 98.4492 12.3379 97.8633 12.3379C97.2057 12.3379 96.7402 12.5007 96.4668 12.8262C96.2715 13.0671 96.1413 13.3926 96.0762 13.8027H93.3906C93.4492 12.8717 93.7096 12.1068 94.1719 11.5078C94.9076 10.5703 96.1706 10.1016 97.9609 10.1016C99.1263 10.1016 100.161 10.3327 101.066 10.7949C101.971 11.2572 102.424 12.1296 102.424 13.4121V18.2949C102.424 18.6335 102.43 19.0436 102.443 19.5254C102.463 19.89 102.518 20.1374 102.609 20.2676C102.701 20.3978 102.837 20.5052 103.02 20.5898V21H99.9922C99.9076 20.7852 99.849 20.5833 99.8164 20.3945C99.7839 20.2057 99.7578 19.9909 99.7383 19.75C99.3542 20.1667 98.9115 20.5215 98.4102 20.8145C97.8112 21.1595 97.1341 21.332 96.3789 21.332C95.4154 21.332 94.6178 21.0586 93.9863 20.5117C93.3613 19.9583 93.0488 19.1771 93.0488 18.168C93.0488 16.8594 93.5534 15.9121 94.5625 15.3262C95.1159 15.0072 95.9297 14.7793 97.0039 14.6426L97.9512 14.5254ZM110.676 21V6.60547H113.654V12.0938H119.279V6.60547H122.268V21H119.279V14.5742H113.654V21H110.676ZM130.793 15.8242C130.617 15.9349 130.438 16.026 130.256 16.0977C130.08 16.1628 129.836 16.2246 129.523 16.2832L128.898 16.4004C128.312 16.5046 127.893 16.6315 127.639 16.7812C127.209 17.0352 126.994 17.429 126.994 17.9629C126.994 18.4382 127.124 18.7832 127.385 18.998C127.652 19.2064 127.974 19.3105 128.352 19.3105C128.951 19.3105 129.501 19.1348 130.002 18.7832C130.51 18.4316 130.773 17.7904 130.793 16.8594V15.8242ZM129.104 14.5254C129.618 14.4603 129.986 14.3789 130.207 14.2812C130.604 14.112 130.803 13.8483 130.803 13.4902C130.803 13.054 130.65 12.7546 130.344 12.5918C130.044 12.4225 129.602 12.3379 129.016 12.3379C128.358 12.3379 127.893 12.5007 127.619 12.8262C127.424 13.0671 127.294 13.3926 127.229 13.8027H124.543C124.602 12.8717 124.862 12.1068 125.324 11.5078C126.06 10.5703 127.323 10.1016 129.113 10.1016C130.279 10.1016 131.314 10.3327 132.219 10.7949C133.124 11.2572 133.576 12.1296 133.576 13.4121V18.2949C133.576 18.6335 133.583 19.0436 133.596 19.5254C133.615 19.89 133.671 20.1374 133.762 20.2676C133.853 20.3978 133.99 20.5052 134.172 20.5898V21H131.145C131.06 20.7852 131.001 20.5833 130.969 20.3945C130.936 20.2057 130.91 19.9909 130.891 19.75C130.507 20.1667 130.064 20.5215 129.562 20.8145C128.964 21.1595 128.286 21.332 127.531 21.332C126.568 21.332 125.77 21.0586 125.139 20.5117C124.514 19.9583 124.201 19.1771 124.201 18.168C124.201 16.8594 124.706 15.9121 125.715 15.3262C126.268 15.0072 127.082 14.7793 128.156 14.6426L129.104 14.5254ZM138.918 9.08594H136.096V6.51758H138.918V9.08594ZM136.096 10.3555H138.918V21H136.096V10.3555ZM145.549 10.1016C146.193 10.1016 146.766 10.2448 147.268 10.5312C147.769 10.8112 148.176 11.2018 148.488 11.7031V6.625H151.311V21H148.605V19.5254C148.208 20.1569 147.756 20.6159 147.248 20.9023C146.74 21.1888 146.109 21.332 145.354 21.332C144.11 21.332 143.062 20.8307 142.209 19.8281C141.363 18.819 140.939 17.5267 140.939 15.9512C140.939 14.1348 141.356 12.7057 142.189 11.6641C143.029 10.6224 144.149 10.1016 145.549 10.1016ZM146.154 18.9883C146.942 18.9883 147.541 18.6953 147.951 18.1094C148.361 17.5234 148.566 16.765 148.566 15.834C148.566 14.5319 148.238 13.6009 147.58 13.041C147.176 12.7025 146.708 12.5332 146.174 12.5332C145.36 12.5332 144.761 12.8424 144.377 13.4609C143.999 14.0729 143.811 14.8346 143.811 15.7461C143.811 16.7292 144.003 17.5169 144.387 18.1094C144.777 18.6953 145.367 18.9883 146.154 18.9883ZM158.049 12.3672C157.404 12.3672 156.903 12.569 156.545 12.9727C156.193 13.3763 155.972 13.9232 155.881 14.6133H160.207C160.161 13.8776 159.937 13.321 159.533 12.9434C159.136 12.5592 158.641 12.3672 158.049 12.3672ZM158.049 10.0723C158.934 10.0723 159.732 10.2383 160.441 10.5703C161.151 10.9023 161.737 11.4264 162.199 12.1426C162.616 12.7741 162.886 13.5065 163.01 14.3398C163.081 14.8281 163.111 15.5312 163.098 16.4492H155.812C155.852 17.5169 156.187 18.2656 156.818 18.6953C157.202 18.9622 157.665 19.0957 158.205 19.0957C158.778 19.0957 159.243 18.9329 159.602 18.6074C159.797 18.4316 159.969 18.1875 160.119 17.875H162.961C162.889 18.5065 162.561 19.1478 161.975 19.7988C161.063 20.834 159.787 21.3516 158.146 21.3516C156.792 21.3516 155.598 20.9154 154.562 20.043C153.527 19.1706 153.01 17.7513 153.01 15.7852C153.01 13.9427 153.475 12.5299 154.406 11.5469C155.344 10.5638 156.558 10.0723 158.049 10.0723ZM170.764 10.1016C170.816 10.1016 170.858 10.1048 170.891 10.1113C170.93 10.1113 171.011 10.1146 171.135 10.1211V12.9727C170.959 12.9531 170.803 12.9401 170.666 12.9336C170.529 12.9271 170.419 12.9238 170.334 12.9238C169.214 12.9238 168.462 13.2884 168.078 14.0176C167.863 14.4277 167.756 15.0592 167.756 15.9121V21H164.953V10.3555H167.609V12.2109C168.039 11.5013 168.413 11.0163 168.732 10.7559C169.253 10.3197 169.93 10.1016 170.764 10.1016ZM178.527 10.1211C179.927 10.1211 181.021 10.6257 181.809 11.6348C182.603 12.6439 183 13.946 183 15.541C183 17.1947 182.609 18.5651 181.828 19.6523C181.047 20.7396 179.956 21.2832 178.557 21.2832C177.678 21.2832 176.971 21.1074 176.438 20.7559C176.118 20.5475 175.773 20.1829 175.402 19.6621V21H172.678V6.625H175.451V11.7422C175.803 11.2474 176.19 10.8698 176.613 10.6094C177.115 10.2839 177.753 10.1211 178.527 10.1211ZM177.814 18.9883C178.531 18.9883 179.087 18.6986 179.484 18.1191C179.882 17.5397 180.08 16.778 180.08 15.834C180.08 15.0788 179.982 14.4538 179.787 13.959C179.416 13.0215 178.732 12.5527 177.736 12.5527C176.727 12.5527 176.034 13.0117 175.656 13.9297C175.461 14.418 175.363 15.0495 175.363 15.8242C175.363 16.7357 175.565 17.4909 175.969 18.0898C176.372 18.6888 176.988 18.9883 177.814 18.9883ZM190.871 10.082C191.529 10.082 192.124 10.196 192.658 10.4238C193.199 10.6517 193.641 11 193.986 11.4688C194.279 11.8659 194.458 12.276 194.523 12.6992C194.589 13.1159 194.621 13.7995 194.621 14.75V21H191.779V14.5254C191.779 13.9525 191.682 13.4902 191.486 13.1387C191.232 12.6439 190.751 12.3965 190.041 12.3965C189.305 12.3965 188.745 12.6439 188.361 13.1387C187.984 13.627 187.795 14.3268 187.795 15.2383V21H185.021V6.6543H187.795V11.7422C188.199 11.1237 188.664 10.694 189.191 10.4531C189.725 10.2057 190.285 10.082 190.871 10.082ZM203.098 15.8242C202.922 15.9349 202.743 16.026 202.561 16.0977C202.385 16.1628 202.141 16.2246 201.828 16.2832L201.203 16.4004C200.617 16.5046 200.197 16.6315 199.943 16.7812C199.514 17.0352 199.299 17.429 199.299 17.9629C199.299 18.4382 199.429 18.7832 199.689 18.998C199.956 19.2064 200.279 19.3105 200.656 19.3105C201.255 19.3105 201.805 19.1348 202.307 18.7832C202.814 18.4316 203.078 17.7904 203.098 16.8594V15.8242ZM201.408 14.5254C201.923 14.4603 202.29 14.3789 202.512 14.2812C202.909 14.112 203.107 13.8483 203.107 13.4902C203.107 13.054 202.954 12.7546 202.648 12.5918C202.349 12.4225 201.906 12.3379 201.32 12.3379C200.663 12.3379 200.197 12.5007 199.924 12.8262C199.729 13.0671 199.598 13.3926 199.533 13.8027H196.848C196.906 12.8717 197.167 12.1068 197.629 11.5078C198.365 10.5703 199.628 10.1016 201.418 10.1016C202.583 10.1016 203.618 10.3327 204.523 10.7949C205.428 11.2572 205.881 12.1296 205.881 13.4121V18.2949C205.881 18.6335 205.887 19.0436 205.9 19.5254C205.92 19.89 205.975 20.1374 206.066 20.2676C206.158 20.3978 206.294 20.5052 206.477 20.5898V21H203.449C203.365 20.7852 203.306 20.5833 203.273 20.3945C203.241 20.2057 203.215 19.9909 203.195 19.75C202.811 20.1667 202.368 20.5215 201.867 20.8145C201.268 21.1595 200.591 21.332 199.836 21.332C198.872 21.332 198.075 21.0586 197.443 20.5117C196.818 19.9583 196.506 19.1771 196.506 18.168C196.506 16.8594 197.01 15.9121 198.02 15.3262C198.573 15.0072 199.387 14.7793 200.461 14.6426L201.408 14.5254ZM211.223 9.08594H208.4V6.51758H211.223V9.08594ZM208.4 10.3555H211.223V21H208.4V10.3555Z" fill="white"/>
</svg>
