<svg width="368" height="134" viewBox="0 0 368 134" fill="none" xmlns="http://www.w3.org/2000/svg">
<path d="M83.955 58.5507L79.133 52.5287C79.701 52.1757 80.082 51.5517 80.082 50.8337V44.6667C80.082 43.5627 79.186 42.6667 78.082 42.6667H75.915V35.0007C76.65 33.8897 77.081 32.5607 77.081 31.1317C77.081 28.0217 75.017 25.2867 72.087 24.3987L62.518 14.8297C63.821 10.5417 59.905 2.37465 51.652 3.74065L48.497 0.585654C47.737 -0.173346 46.515 -0.197346 45.726 0.529654C37.853 7.79665 25.284 19.3297 22.773 21.4677C18.691 21.8277 14.423 25.1497 14.423 29.5117V30.5647H8.605C7.548 30.5647 6.673 31.3867 6.609 32.4417L5.023 58.2617H2C0.896001 58.2617 0 59.1577 0 60.2617V86.6647C0 87.7687 0.896001 88.6647 2 88.6647H46.279C47.383 88.6647 48.279 87.7687 48.279 86.6647V60.2647C48.279 59.1607 47.383 58.2647 46.279 58.2647H32.111L26.475 43.8757C29.461 42.8387 32.127 40.3447 32.526 37.1567L46.489 21.7057C48.514 23.2497 51.061 24.0037 53.717 23.6797L63.382 33.3447C63.887 34.8787 64.893 36.1377 66.179 36.9897V42.6677H64.012C62.908 42.6677 62.012 43.5637 62.012 44.6677V50.8337C62.012 51.5517 62.393 52.1757 62.961 52.5287L58.139 58.5507C57.855 58.9047 57.7 59.3457 57.7 59.8007V66.5837C57.7 67.6877 58.596 68.5837 59.7 68.5837H65.697C66.801 68.5837 67.697 67.6877 67.697 66.5837V63.9997L70.432 60.2276L71.505 60.2177L74.397 64.1127V66.5837C74.397 67.6877 75.293 68.5837 76.397 68.5837H82.395C83.499 68.5837 84.395 67.6877 84.395 66.5837V59.8007C84.394 59.3457 84.239 58.9047 83.955 58.5507ZM66.011 46.6667H76.082V48.8337H66.011V46.6667ZM70.047 28.1397C71.697 28.1397 73.04 29.4827 73.04 31.1327C73.04 32.7827 71.697 34.1257 70.047 34.1257C68.397 34.1257 67.054 32.7837 67.054 31.1327C67.054 29.4817 68.397 28.1397 70.047 28.1397ZM70.178 38.1607C70.779 38.1497 71.361 38.0607 71.916 37.9077V44.6677H70.178V38.1607ZM52.558 19.6877C49.27 19.6877 46.596 17.0127 46.596 13.7257C46.596 10.4387 49.27 7.76365 52.558 7.76365C55.846 7.76365 58.52 10.4377 58.52 13.7257C58.52 17.0137 55.845 19.6877 52.558 19.6877ZM28.575 35.7677C28.575 37.9617 25.784 39.8427 23.5 39.8427C21.216 39.8427 18.425 37.9627 18.425 35.7677V30.0757C18.425 27.8817 21.216 26.0007 23.5 26.0007C25.784 26.0007 28.575 27.8807 28.575 30.0757V35.7677ZM44.279 84.6667H4V62.2647H44.279V84.6667V84.6667ZM27.816 58.2647H9.031L10.487 34.5667H16.424C16.425 34.5667 16.425 34.5667 16.426 34.5667V35.7677C16.426 38.6407 19.108 40.9657 21.905 41.6387C21.712 42.1097 27.816 58.2647 27.816 58.2647ZM30.575 33.3487V30.0757C30.575 27.3517 28.162 25.1187 25.527 24.3207C27.795 22.4847 33.097 17.6297 47.027 4.77365L48.909 6.65665C46.35 7.98265 44.594 10.6507 44.594 13.7257C44.594 14.9457 44.878 16.0977 45.37 17.1317C45.196 17.2327 45.031 17.3507 44.893 17.5037L30.575 33.3487ZM56.393 20.6997C57.725 19.9637 58.827 18.8597 59.555 17.5227L68.456 26.4237C66.962 26.9307 65.796 28.1157 65.314 29.6207L56.393 20.6997ZM80.394 64.5837H78.397V63.4516C78.397 63.0226 78.259 62.6047 78.003 62.2597L74.11 57.0157C73.729 56.5017 73.145 56.2397 72.485 56.2077L69.386 56.2377C68.752 56.2437 68.158 56.5507 67.786 57.0637L64.078 62.1767C63.83 62.5177 63.697 62.9287 63.697 63.3507V64.5837H61.699V60.5027L67.784 52.9037H74.308L80.393 60.5027V64.5837H80.394ZM24.978 30.8627C24.889 30.7077 24.724 30.6127 24.545 30.6127H22.457C22.278 30.6127 22.113 30.7077 22.024 30.8627L20.98 32.6717C20.891 32.8267 20.891 33.0167 20.98 33.1717L22.024 34.9797C22.113 35.1347 22.278 35.2297 22.457 35.2297H24.545C24.724 35.2297 24.889 35.1347 24.978 34.9797L26.022 33.1717C26.111 33.0167 26.111 32.8267 26.022 32.6717L24.978 30.8627ZM54.035 11.6667C53.946 11.5117 53.781 11.4167 53.602 11.4167H51.514C51.335 11.4167 51.17 11.5117 51.081 11.6667L50.037 13.4747C49.948 13.6297 49.948 13.8197 50.037 13.9747L51.081 15.7837C51.17 15.9387 51.335 16.0337 51.514 16.0337H53.602C53.781 16.0337 53.946 15.9387 54.035 15.7837L55.079 13.9747C55.168 13.8197 55.168 13.6297 55.079 13.4747L54.035 11.6667Z" fill="white"/>
<path d="M72.0645 75.6055H76.3906V90H73.5879V80.2637C73.5879 79.9837 73.5911 79.5931 73.5977 79.0918C73.6042 78.584 73.6074 78.1934 73.6074 77.9199L70.8828 90H67.9629L65.2578 77.9199C65.2578 78.1934 65.2611 78.584 65.2676 79.0918C65.2741 79.5931 65.2773 79.9837 65.2773 80.2637V90H62.4746V75.6055H66.8496L69.4668 86.9238L72.0645 75.6055ZM81.7324 79.3555V85.7715C81.7324 86.377 81.804 86.8327 81.9473 87.1387C82.2012 87.679 82.6992 87.9492 83.4414 87.9492C84.3919 87.9492 85.043 87.5651 85.3945 86.7969C85.5768 86.3802 85.668 85.8301 85.668 85.1465V79.3555H88.4902V90H85.7852V88.4961C85.7591 88.5286 85.694 88.6263 85.5898 88.7891C85.4857 88.9518 85.362 89.0951 85.2188 89.2188C84.7826 89.6094 84.3594 89.8763 83.9492 90.0195C83.5456 90.1628 83.0703 90.2344 82.5234 90.2344C80.9479 90.2344 79.8867 89.668 79.3398 88.5352C79.0339 87.9102 78.8809 86.9889 78.8809 85.7715V79.3555H81.7324ZM93.3535 86.6016C93.4121 87.0964 93.5391 87.4479 93.7344 87.6562C94.0794 88.0273 94.7174 88.2129 95.6484 88.2129C96.1953 88.2129 96.6283 88.1315 96.9473 87.9688C97.2728 87.806 97.4355 87.5618 97.4355 87.2363C97.4355 86.9238 97.3053 86.6862 97.0449 86.5234C96.7845 86.3607 95.8177 86.0807 94.1445 85.6836C92.9401 85.3841 92.0905 85.0098 91.5957 84.5605C91.1009 84.1178 90.8535 83.4798 90.8535 82.6465C90.8535 81.6634 91.2376 80.8203 92.0059 80.1172C92.7806 79.4076 93.8678 79.0527 95.2676 79.0527C96.5957 79.0527 97.6764 79.3197 98.5098 79.8535C99.3496 80.3809 99.8314 81.2956 99.9551 82.5977H97.1719C97.1328 82.2396 97.0319 81.9564 96.8691 81.748C96.5632 81.3704 96.0423 81.1816 95.3066 81.1816C94.7012 81.1816 94.2682 81.276 94.0078 81.4648C93.7539 81.6536 93.627 81.875 93.627 82.1289C93.627 82.4479 93.7637 82.679 94.0371 82.8223C94.3105 82.972 95.2773 83.2292 96.9375 83.5938C98.0443 83.8542 98.8743 84.248 99.4277 84.7754C99.9746 85.3092 100.248 85.9766 100.248 86.7773C100.248 87.832 99.8542 88.6947 99.0664 89.3652C98.2852 90.0293 97.0742 90.3613 95.4336 90.3613C93.7604 90.3613 92.5234 90.0098 91.7227 89.3066C90.9284 88.597 90.5312 87.6953 90.5312 86.6016H93.3535ZM101.225 81.4355V79.4531H102.709V76.4844H105.463V79.4531H107.191V81.4355H105.463V87.0605C105.463 87.4967 105.518 87.7702 105.629 87.8809C105.74 87.985 106.078 88.0371 106.645 88.0371C106.729 88.0371 106.817 88.0371 106.908 88.0371C107.006 88.0306 107.1 88.0241 107.191 88.0176V90.0977L105.873 90.1465C104.558 90.1921 103.66 89.9642 103.178 89.4629C102.865 89.1439 102.709 88.6523 102.709 87.9883V81.4355H101.225ZM114.848 84.8242C114.672 84.9349 114.493 85.026 114.311 85.0977C114.135 85.1628 113.891 85.2246 113.578 85.2832L112.953 85.4004C112.367 85.5046 111.947 85.6315 111.693 85.7812C111.264 86.0352 111.049 86.429 111.049 86.9629C111.049 87.4382 111.179 87.7832 111.439 87.998C111.706 88.2064 112.029 88.3105 112.406 88.3105C113.005 88.3105 113.555 88.1348 114.057 87.7832C114.564 87.4316 114.828 86.7904 114.848 85.8594V84.8242ZM113.158 83.5254C113.673 83.4603 114.04 83.3789 114.262 83.2812C114.659 83.112 114.857 82.8483 114.857 82.4902C114.857 82.054 114.704 81.7546 114.398 81.5918C114.099 81.4225 113.656 81.3379 113.07 81.3379C112.413 81.3379 111.947 81.5007 111.674 81.8262C111.479 82.0671 111.348 82.3926 111.283 82.8027H108.598C108.656 81.8717 108.917 81.1068 109.379 80.5078C110.115 79.5703 111.378 79.1016 113.168 79.1016C114.333 79.1016 115.368 79.3327 116.273 79.7949C117.178 80.2572 117.631 81.1296 117.631 82.4121V87.2949C117.631 87.6335 117.637 88.0436 117.65 88.5254C117.67 88.89 117.725 89.1374 117.816 89.2676C117.908 89.3978 118.044 89.5052 118.227 89.5898V90H115.199C115.115 89.7852 115.056 89.5833 115.023 89.3945C114.991 89.2057 114.965 88.9909 114.945 88.75C114.561 89.1667 114.118 89.5215 113.617 89.8145C113.018 90.1595 112.341 90.332 111.586 90.332C110.622 90.332 109.825 90.0586 109.193 89.5117C108.568 88.9583 108.256 88.1771 108.256 87.168C108.256 85.8594 108.76 84.9121 109.77 84.3262C110.323 84.0072 111.137 83.7793 112.211 83.6426L113.158 83.5254ZM124.037 75.459C124.213 75.459 124.372 75.4655 124.516 75.4785C124.659 75.485 124.854 75.498 125.102 75.5176V77.7832C124.945 77.7637 124.682 77.7507 124.311 77.7441C123.946 77.7311 123.692 77.8125 123.549 77.9883C123.412 78.1576 123.344 78.3464 123.344 78.5547C123.344 78.763 123.344 79.0625 123.344 79.4531H125.17V81.416H123.344V90H120.57V81.416H119.018V79.4531H120.541V78.7695C120.541 77.6302 120.733 76.8457 121.117 76.416C121.521 75.778 122.494 75.459 124.037 75.459ZM132.641 84.8242C132.465 84.9349 132.286 85.026 132.104 85.0977C131.928 85.1628 131.684 85.2246 131.371 85.2832L130.746 85.4004C130.16 85.5046 129.74 85.6315 129.486 85.7812C129.057 86.0352 128.842 86.429 128.842 86.9629C128.842 87.4382 128.972 87.7832 129.232 87.998C129.499 88.2064 129.822 88.3105 130.199 88.3105C130.798 88.3105 131.348 88.1348 131.85 87.7832C132.357 87.4316 132.621 86.7904 132.641 85.8594V84.8242ZM130.951 83.5254C131.465 83.4603 131.833 83.3789 132.055 83.2812C132.452 83.112 132.65 82.8483 132.65 82.4902C132.65 82.054 132.497 81.7546 132.191 81.5918C131.892 81.4225 131.449 81.3379 130.863 81.3379C130.206 81.3379 129.74 81.5007 129.467 81.8262C129.271 82.0671 129.141 82.3926 129.076 82.8027H126.391C126.449 81.8717 126.71 81.1068 127.172 80.5078C127.908 79.5703 129.171 79.1016 130.961 79.1016C132.126 79.1016 133.161 79.3327 134.066 79.7949C134.971 80.2572 135.424 81.1296 135.424 82.4121V87.2949C135.424 87.6335 135.43 88.0436 135.443 88.5254C135.463 88.89 135.518 89.1374 135.609 89.2676C135.701 89.3978 135.837 89.5052 136.02 89.5898V90H132.992C132.908 89.7852 132.849 89.5833 132.816 89.3945C132.784 89.2057 132.758 88.9909 132.738 88.75C132.354 89.1667 131.911 89.5215 131.41 89.8145C130.811 90.1595 130.134 90.332 129.379 90.332C128.415 90.332 127.618 90.0586 126.986 89.5117C126.361 88.9583 126.049 88.1771 126.049 87.168C126.049 85.8594 126.553 84.9121 127.562 84.3262C128.116 84.0072 128.93 83.7793 130.004 83.6426L130.951 83.5254ZM143.676 90V75.6055H146.654V81.0938H152.279V75.6055H155.268V90H152.279V83.5742H146.654V90H143.676ZM163.793 84.8242C163.617 84.9349 163.438 85.026 163.256 85.0977C163.08 85.1628 162.836 85.2246 162.523 85.2832L161.898 85.4004C161.312 85.5046 160.893 85.6315 160.639 85.7812C160.209 86.0352 159.994 86.429 159.994 86.9629C159.994 87.4382 160.124 87.7832 160.385 87.998C160.652 88.2064 160.974 88.3105 161.352 88.3105C161.951 88.3105 162.501 88.1348 163.002 87.7832C163.51 87.4316 163.773 86.7904 163.793 85.8594V84.8242ZM162.104 83.5254C162.618 83.4603 162.986 83.3789 163.207 83.2812C163.604 83.112 163.803 82.8483 163.803 82.4902C163.803 82.054 163.65 81.7546 163.344 81.5918C163.044 81.4225 162.602 81.3379 162.016 81.3379C161.358 81.3379 160.893 81.5007 160.619 81.8262C160.424 82.0671 160.294 82.3926 160.229 82.8027H157.543C157.602 81.8717 157.862 81.1068 158.324 80.5078C159.06 79.5703 160.323 79.1016 162.113 79.1016C163.279 79.1016 164.314 79.3327 165.219 79.7949C166.124 80.2572 166.576 81.1296 166.576 82.4121V87.2949C166.576 87.6335 166.583 88.0436 166.596 88.5254C166.615 88.89 166.671 89.1374 166.762 89.2676C166.853 89.3978 166.99 89.5052 167.172 89.5898V90H164.145C164.06 89.7852 164.001 89.5833 163.969 89.3945C163.936 89.2057 163.91 88.9909 163.891 88.75C163.507 89.1667 163.064 89.5215 162.562 89.8145C161.964 90.1595 161.286 90.332 160.531 90.332C159.568 90.332 158.77 90.0586 158.139 89.5117C157.514 88.9583 157.201 88.1771 157.201 87.168C157.201 85.8594 157.706 84.9121 158.715 84.3262C159.268 84.0072 160.082 83.7793 161.156 83.6426L162.104 83.5254ZM171.918 78.0859H169.096V75.5176H171.918V78.0859ZM169.096 79.3555H171.918V90H169.096V79.3555ZM178.549 79.1016C179.193 79.1016 179.766 79.2448 180.268 79.5312C180.769 79.8112 181.176 80.2018 181.488 80.7031V75.625H184.311V90H181.605V88.5254C181.208 89.1569 180.756 89.6159 180.248 89.9023C179.74 90.1888 179.109 90.332 178.354 90.332C177.11 90.332 176.062 89.8307 175.209 88.8281C174.363 87.819 173.939 86.5267 173.939 84.9512C173.939 83.1348 174.356 81.7057 175.189 80.6641C176.029 79.6224 177.149 79.1016 178.549 79.1016ZM179.154 87.9883C179.942 87.9883 180.541 87.6953 180.951 87.1094C181.361 86.5234 181.566 85.765 181.566 84.834C181.566 83.5319 181.238 82.6009 180.58 82.041C180.176 81.7025 179.708 81.5332 179.174 81.5332C178.36 81.5332 177.761 81.8424 177.377 82.4609C176.999 83.0729 176.811 83.8346 176.811 84.7461C176.811 85.7292 177.003 86.5169 177.387 87.1094C177.777 87.6953 178.367 87.9883 179.154 87.9883ZM191.049 81.3672C190.404 81.3672 189.903 81.569 189.545 81.9727C189.193 82.3763 188.972 82.9232 188.881 83.6133H193.207C193.161 82.8776 192.937 82.321 192.533 81.9434C192.136 81.5592 191.641 81.3672 191.049 81.3672ZM191.049 79.0723C191.934 79.0723 192.732 79.2383 193.441 79.5703C194.151 79.9023 194.737 80.4264 195.199 81.1426C195.616 81.7741 195.886 82.5065 196.01 83.3398C196.081 83.8281 196.111 84.5312 196.098 85.4492H188.812C188.852 86.5169 189.187 87.2656 189.818 87.6953C190.202 87.9622 190.665 88.0957 191.205 88.0957C191.778 88.0957 192.243 87.9329 192.602 87.6074C192.797 87.4316 192.969 87.1875 193.119 86.875H195.961C195.889 87.5065 195.561 88.1478 194.975 88.7988C194.063 89.834 192.787 90.3516 191.146 90.3516C189.792 90.3516 188.598 89.9154 187.562 89.043C186.527 88.1706 186.01 86.7513 186.01 84.7852C186.01 82.9427 186.475 81.5299 187.406 80.5469C188.344 79.5638 189.558 79.0723 191.049 79.0723ZM203.764 79.1016C203.816 79.1016 203.858 79.1048 203.891 79.1113C203.93 79.1113 204.011 79.1146 204.135 79.1211V81.9727C203.959 81.9531 203.803 81.9401 203.666 81.9336C203.529 81.9271 203.419 81.9238 203.334 81.9238C202.214 81.9238 201.462 82.2884 201.078 83.0176C200.863 83.4277 200.756 84.0592 200.756 84.9121V90H197.953V79.3555H200.609V81.2109C201.039 80.5013 201.413 80.0163 201.732 79.7559C202.253 79.3197 202.93 79.1016 203.764 79.1016ZM211.527 79.1211C212.927 79.1211 214.021 79.6257 214.809 80.6348C215.603 81.6439 216 82.946 216 84.541C216 86.1947 215.609 87.5651 214.828 88.6523C214.047 89.7396 212.956 90.2832 211.557 90.2832C210.678 90.2832 209.971 90.1074 209.438 89.7559C209.118 89.5475 208.773 89.1829 208.402 88.6621V90H205.678V75.625H208.451V80.7422C208.803 80.2474 209.19 79.8698 209.613 79.6094C210.115 79.2839 210.753 79.1211 211.527 79.1211ZM210.814 87.9883C211.531 87.9883 212.087 87.6986 212.484 87.1191C212.882 86.5397 213.08 85.778 213.08 84.834C213.08 84.0788 212.982 83.4538 212.787 82.959C212.416 82.0215 211.732 81.5527 210.736 81.5527C209.727 81.5527 209.034 82.0117 208.656 82.9297C208.461 83.418 208.363 84.0495 208.363 84.8242C208.363 85.7357 208.565 86.4909 208.969 87.0898C209.372 87.6888 209.988 87.9883 210.814 87.9883ZM223.871 79.082C224.529 79.082 225.124 79.196 225.658 79.4238C226.199 79.6517 226.641 80 226.986 80.4688C227.279 80.8659 227.458 81.276 227.523 81.6992C227.589 82.1159 227.621 82.7995 227.621 83.75V90H224.779V83.5254C224.779 82.9525 224.682 82.4902 224.486 82.1387C224.232 81.6439 223.751 81.3965 223.041 81.3965C222.305 81.3965 221.745 81.6439 221.361 82.1387C220.984 82.627 220.795 83.3268 220.795 84.2383V90H218.021V75.6543H220.795V80.7422C221.199 80.1237 221.664 79.694 222.191 79.4531C222.725 79.2057 223.285 79.082 223.871 79.082ZM236.098 84.8242C235.922 84.9349 235.743 85.026 235.561 85.0977C235.385 85.1628 235.141 85.2246 234.828 85.2832L234.203 85.4004C233.617 85.5046 233.197 85.6315 232.943 85.7812C232.514 86.0352 232.299 86.429 232.299 86.9629C232.299 87.4382 232.429 87.7832 232.689 87.998C232.956 88.2064 233.279 88.3105 233.656 88.3105C234.255 88.3105 234.805 88.1348 235.307 87.7832C235.814 87.4316 236.078 86.7904 236.098 85.8594V84.8242ZM234.408 83.5254C234.923 83.4603 235.29 83.3789 235.512 83.2812C235.909 83.112 236.107 82.8483 236.107 82.4902C236.107 82.054 235.954 81.7546 235.648 81.5918C235.349 81.4225 234.906 81.3379 234.32 81.3379C233.663 81.3379 233.197 81.5007 232.924 81.8262C232.729 82.0671 232.598 82.3926 232.533 82.8027H229.848C229.906 81.8717 230.167 81.1068 230.629 80.5078C231.365 79.5703 232.628 79.1016 234.418 79.1016C235.583 79.1016 236.618 79.3327 237.523 79.7949C238.428 80.2572 238.881 81.1296 238.881 82.4121V87.2949C238.881 87.6335 238.887 88.0436 238.9 88.5254C238.92 88.89 238.975 89.1374 239.066 89.2676C239.158 89.3978 239.294 89.5052 239.477 89.5898V90H236.449C236.365 89.7852 236.306 89.5833 236.273 89.3945C236.241 89.2057 236.215 88.9909 236.195 88.75C235.811 89.1667 235.368 89.5215 234.867 89.8145C234.268 90.1595 233.591 90.332 232.836 90.332C231.872 90.332 231.075 90.0586 230.443 89.5117C229.818 88.9583 229.506 88.1771 229.506 87.168C229.506 85.8594 230.01 84.9121 231.02 84.3262C231.573 84.0072 232.387 83.7793 233.461 83.6426L234.408 83.5254ZM244.223 78.0859H241.4V75.5176H244.223V78.0859ZM241.4 79.3555H244.223V90H241.4V79.3555Z" fill="white"/>
</svg>
